<svg width="18" height="21" viewBox="0 0 18 21" fill="none" xmlns="http://www.w3.org/2000/svg">
<path d="M11.8033 12.2671L14.9413 10.4504C15.2216 10.2881 15.3176 9.92879 15.1558 9.64772C14.994 9.36669 14.6357 9.27029 14.3554 9.43266L11.2174 11.2494C10.9372 11.4116 10.8411 11.771 11.0029 12.052C11.1391 12.2886 11.4811 12.4538 11.8033 12.2671Z" fill="black"/>
<path d="M17.4458 4.83569L9.2929 0.115359C9.11158 0.0103753 8.88826 0.0103753 8.70697 0.115359L0.554077 4.83569C0.372788 4.94067 0.261108 5.13461 0.261108 5.34454V14.7852C0.261108 14.9951 0.372788 15.1891 0.554077 15.2941L8.70697 20.0144C8.79759 20.0669 8.89876 20.0931 8.99994 20.0931C9.10111 20.0931 9.20228 20.0669 9.2929 20.0144L17.4458 15.2941C17.6271 15.1891 17.7388 14.9951 17.7388 14.7852V5.34454C17.7388 5.13461 17.6271 4.94063 17.4458 4.83569ZM13.2663 3.77269L6.28521 7.81455L4.73955 6.91956L11.7206 2.87771L13.2663 3.77269ZM5.69927 8.83226V10.6171L4.15142 9.72078L4.15287 7.93688L5.69927 8.83226ZM8.99994 1.30269L10.5486 2.19931L3.56755 6.24117L2.01892 5.34454L8.99994 1.30269ZM8.414 18.4878L1.43298 14.446V6.36225L2.98154 7.2588L2.97931 10.0593C2.97915 10.2694 3.09083 10.4636 3.27228 10.5687L5.99228 12.1437C6.2974 12.3203 6.57255 12.147 6.57822 12.1437C6.75955 12.0388 6.87119 11.8448 6.87119 11.6348V9.51085L8.414 10.4041V18.4878ZM8.99994 9.3864L7.45701 8.4931L14.438 4.45124L15.9809 5.34454L8.99994 9.3864ZM16.5669 14.446L9.58587 18.4878V10.4041L16.5669 6.36225V14.446Z" fill="black"/>
<path d="M14.3555 12.5795L11.2175 14.3962C10.9373 14.5585 10.8412 14.9178 11.003 15.1988C11.1407 15.4379 11.4833 15.5993 11.8034 15.4139L14.9414 13.5973C15.2216 13.435 15.3177 13.0757 15.1559 12.7946C14.9941 12.5136 14.6358 12.4173 14.3555 12.5795Z" fill="black"/>
</svg>
