<svg width="8" height="8" viewBox="0 0 8 8" fill="none" xmlns="http://www.w3.org/2000/svg">
<path fill-rule="evenodd" clip-rule="evenodd" d="M2.95901 4.70711C3.34954 4.31658 3.34954 3.68342 2.95901 3.29289L1.16694 1.50082C1.07474 1.40862 1.07474 1.25914 1.16694 1.16694C1.25914 1.07474 1.40862 1.07474 1.50082 1.16694L3.29289 2.95901C3.68342 3.34954 4.31658 3.34954 4.70711 2.95901L6.49918 1.16694C6.59138 1.07474 6.74086 1.07474 6.83306 1.16694C6.92526 1.25914 6.92526 1.40862 6.83306 1.50082L5.04099 3.29289C4.65046 3.68342 4.65046 4.31658 5.04099 4.70711L6.83306 6.49918C6.92526 6.59138 6.92526 6.74086 6.83306 6.83306C6.74086 6.92526 6.59138 6.92526 6.49918 6.83306L4.70711 5.04099C4.31658 4.65046 3.68342 4.65046 3.29289 5.04099L1.50082 6.83306C1.40862 6.92526 1.25914 6.92526 1.16694 6.83306C1.07474 6.74086 1.07474 6.59138 1.16694 6.49918L2.95901 4.70711Z" fill="#BFBFBF" stroke="#BFBFBF"/>
</svg>
