<svg width="20" height="20" viewBox="0 0 20 20" fill="none" xmlns="http://www.w3.org/2000/svg">
<path d="M20 6.44488C20.0006 6.28745 19.9382 6.1364 19.8268 6.0255L14.8159 1.03962C14.5868 0.811709 14.217 0.812375 13.9888 1.04126L12.5327 2.50155C11.682 2.42073 10.8141 2.51056 10.0003 2.76389C9.18524 2.51024 8.31907 2.4205 7.46731 2.50155L6.01118 1.0413C5.78297 0.812454 5.41325 0.811709 5.18414 1.03966L0.173246 6.0255C0.061801 6.1364 -0.000581847 6.28749 4.0906e-06 6.44488C0.000590028 6.60228 0.0642228 6.7529 0.176488 6.8629L1.66645 8.32267C1.58418 9.19983 1.68129 10.0955 1.9511 10.9313C2.12157 11.4593 2.35508 11.9545 2.64821 12.4139L2.38789 12.675C1.70254 13.3623 1.70254 14.4806 2.38789 15.1679C2.54965 15.3301 2.73555 15.4535 2.93391 15.5392C2.5502 16.2124 2.64414 17.0868 3.21657 17.6609C3.79231 18.2382 4.66309 18.3296 5.33157 17.9452C5.41848 18.1466 5.54309 18.332 5.7025 18.4918C6.38836 19.1797 7.50356 19.1786 8.1884 18.4918L8.34278 18.337L8.70055 18.6958C8.72024 18.7156 8.74102 18.7336 8.76266 18.75C9.09399 19.0794 9.53313 19.2608 10.0001 19.2608C10.4679 19.2608 10.9079 19.0787 11.2395 18.7481C11.5671 18.4297 11.451 18.544 11.6574 18.3371C11.8608 18.5411 12.27 19.0082 13.0547 19.0082C13.5243 19.0082 13.9657 18.8248 14.2977 18.4919C14.4572 18.3319 14.5819 18.1464 14.6688 17.9448C15.3425 18.3305 16.2129 18.2332 16.7836 17.6609C17.356 17.0869 17.45 16.2123 17.0663 15.5392C17.2646 15.4536 17.4505 15.3301 17.6122 15.1679C18.2993 14.479 18.2993 13.3639 17.6122 12.675L17.3508 12.4128C18.1168 11.2065 18.4676 9.75444 18.3336 8.32267L19.8237 6.86286C19.9358 6.7529 19.9994 6.60232 20 6.44488ZM3.21653 14.337C2.98805 14.1078 2.98805 13.7351 3.21649 13.5059L3.3736 13.3484C3.42325 13.4015 3.4736 13.4542 3.52524 13.5059L4.19954 14.1821L4.04516 14.337C3.81668 14.566 3.445 14.5661 3.21653 14.337ZM4.87379 16.8299C4.64477 17.0595 4.27418 17.0595 4.04516 16.8299C3.81614 16.6002 3.81614 16.2286 4.04516 15.9989L5.02817 15.0131L5.85684 15.8441L4.87379 16.8299ZM7.35969 17.6609C7.13118 17.89 6.7595 17.89 6.53106 17.6609C6.42039 17.5499 6.35942 17.4024 6.35942 17.2454C6.35942 17.0885 6.42039 16.9409 6.53106 16.8299C6.5311 16.8299 6.5311 16.8299 6.53114 16.8298L6.68543 16.6751L7.51407 17.5061L7.35969 17.6609ZM16.7835 14.337C16.555 14.5661 16.1833 14.5661 15.9548 14.337C15.9548 14.337 15.9548 14.337 15.9548 14.337L11.8116 10.1821C11.5829 9.95258 11.2118 9.95258 10.983 10.1821C10.7542 10.4115 10.7542 10.7835 10.983 11.013L15.9548 15.9989C16.1833 16.228 16.1833 16.6008 15.9548 16.8299C15.7264 17.059 15.3547 17.059 15.1262 16.8299C14.8522 16.5552 10.4469 12.1374 10.1543 11.844C9.92555 11.6145 9.55453 11.6145 9.32571 11.844C9.09688 12.0735 9.09688 12.4455 9.32571 12.675L13.4693 16.8303C13.6979 17.0599 13.6979 17.4312 13.4689 17.6609C13.2399 17.8905 12.8693 17.8905 12.6402 17.6609L8.49707 13.506C8.26828 13.2765 7.89727 13.2765 7.66844 13.506C7.43961 13.7355 7.43961 14.1075 7.66844 14.337L10.8286 17.5061C10.6384 17.6969 10.7242 17.6123 10.4209 17.907C10.4186 17.9092 10.4165 17.9113 10.4143 17.9135C10.3036 18.0245 10.1564 18.0856 10 18.0856C9.84348 18.0856 9.69637 18.0245 9.58575 17.9136C9.58356 17.9114 9.58137 17.9092 9.57914 17.9071C9.23059 17.5684 4.72766 13.0498 4.35387 12.675C3.16985 11.4877 2.62614 9.85186 2.86207 8.18702C2.88836 8.00169 2.82496 7.81487 2.69145 7.68404L1.4211 6.4394L5.5952 2.2861L6.8395 3.53391C6.96977 3.66459 7.15383 3.72621 7.33625 3.70016C7.62407 3.65914 7.91504 3.64281 8.20528 3.64966C7.90653 3.86151 7.62414 4.1 7.35973 4.3652C6.63653 5.09048 4.67977 7.05273 4.04516 7.68913C3.35817 8.3781 3.35805 9.49308 4.04516 10.1821C4.38782 10.5258 4.83797 10.6976 5.28809 10.6976C5.73825 10.6976 6.1884 10.5258 6.53106 10.1821L8.8818 7.82475C9.6484 8.09864 10.4677 8.1317 11.2361 7.94297L16.7835 13.5061C17.0125 13.7357 17.0125 14.1073 16.7835 14.337ZM17.3086 7.684C17.175 7.81484 17.1116 8.00161 17.1379 8.18698C17.3029 9.35072 17.0707 10.5459 16.4974 11.5571L12.4058 7.45398C12.6759 7.28792 12.9296 7.08932 13.1602 6.85812C13.389 6.62864 13.389 6.25662 13.1602 6.02714C12.9314 5.79767 12.5604 5.79767 12.3316 6.02714C11.4549 6.90626 10.1148 7.13715 8.99672 6.60157C8.77278 6.49428 8.50543 6.54019 8.32985 6.71631L5.70246 9.35112C5.47403 9.58024 5.10239 9.58028 4.87379 9.35112C4.76313 9.24014 4.70215 9.09258 4.70215 8.93561C4.70215 8.77868 4.76313 8.63112 4.87379 8.52014C5.55914 7.83285 7.51028 5.87621 8.18836 5.19621C8.1884 5.19617 8.18844 5.19609 8.18852 5.19605C9.36485 4.01652 10.9943 3.46226 12.6638 3.70016C12.8461 3.72617 13.0303 3.66459 13.1605 3.53391L14.4048 2.2861L18.5789 6.4394L17.3086 7.684Z" fill="black"/>
</svg>
