<svg width="20" height="21" viewBox="0 0 20 21" fill="none" xmlns="http://www.w3.org/2000/svg">
<path d="M10.3906 20.5733H9.60938C8.31703 20.5733 7.26562 19.519 7.26562 18.223V17.8284C7.26562 17.7246 7.20043 17.6305 7.09953 17.5887L7.08516 17.5828C6.98391 17.5406 6.87109 17.5608 6.79789 17.6342L6.51973 17.9132C6.07707 18.3571 5.48852 18.6016 4.86242 18.6016C4.23641 18.6016 3.64781 18.3571 3.20512 17.9132L2.6527 17.3591C2.21004 16.9153 1.96625 16.325 1.96625 15.6972C1.96625 15.0694 2.21004 14.4791 2.6527 14.0352L2.93094 13.7562C3.0041 13.6829 3.02422 13.5697 2.98215 13.4682L2.97625 13.4538C2.93461 13.3526 2.84074 13.2872 2.73727 13.2872H2.34375C1.05141 13.2872 0 12.2328 0 10.9368V10.1534C0 8.85737 1.05141 7.803 2.34375 7.803H2.73723C2.8407 7.803 2.93457 7.73762 2.97621 7.63643L2.98211 7.6221C3.02418 7.52048 3.0041 7.40739 2.93086 7.33402L2.65266 7.05499C2.21 6.61108 1.96621 6.02087 1.96621 5.39304C1.96621 4.76522 2.21 4.17496 2.6527 3.73106L3.20512 3.17707C3.64781 2.73313 4.23637 2.48865 4.86242 2.48865C5.48848 2.48865 6.07707 2.73313 6.51973 3.17707L6.79793 3.45602C6.87105 3.52939 6.98379 3.54957 7.0852 3.50742L7.09957 3.5015C7.20047 3.45975 7.26566 3.36561 7.26566 3.26184V2.86722C7.26566 1.57122 8.31707 0.516846 9.60941 0.516846H10.3907C11.683 0.516846 12.7344 1.57122 12.7344 2.86722V3.2618C12.7344 3.36557 12.7996 3.45971 12.9005 3.50146L12.9149 3.50738C13.0161 3.54957 13.1289 3.52943 13.2021 3.45598L13.4803 3.177C13.923 2.73309 14.5115 2.48861 15.1376 2.48861C15.7636 2.48861 16.3522 2.73309 16.7949 3.177L17.3473 3.73106C17.79 4.17492 18.0338 4.76514 18.0338 5.393C18.0338 6.02079 17.79 6.61104 17.3473 7.05495L17.0691 7.33398C16.9959 7.40735 16.9758 7.52048 17.0179 7.62206L17.0238 7.63639C17.0654 7.73758 17.1593 7.80296 17.2628 7.80296H17.6562C18.9486 7.80296 20 8.85733 20 10.1533V10.9368C20 12.0098 19.2769 12.9458 18.2416 13.2131C17.8236 13.3209 17.3978 13.0686 17.2903 12.6496C17.1827 12.2306 17.4343 11.8034 17.8521 11.6956C18.1968 11.6067 18.4375 11.2947 18.4375 10.9368V10.1534C18.4375 9.72137 18.087 9.36991 17.6562 9.36991H17.2628C16.5244 9.36991 15.8637 8.92428 15.5796 8.2346L15.5737 8.2203C15.2893 7.53356 15.4421 6.74964 15.9642 6.22601L16.2424 5.94702C16.39 5.79907 16.4713 5.6023 16.4713 5.39304C16.4713 5.18374 16.39 4.98706 16.2425 4.83906L15.69 4.285C15.5425 4.13704 15.3463 4.05556 15.1376 4.05556C14.9289 4.05556 14.7327 4.13704 14.5852 4.285L14.307 4.56403C13.7846 5.08765 13.003 5.24078 12.3154 4.95442L12.304 4.94972C11.6162 4.6649 11.1719 4.00233 11.1719 3.2618V2.86722C11.1719 2.43522 10.8214 2.08376 10.3906 2.08376H9.60938C9.17859 2.08376 8.82812 2.43522 8.82812 2.86722V3.2618C8.82812 4.00229 8.38375 4.66486 7.69602 4.94972L7.68461 4.95442C6.99691 5.2409 6.21531 5.08765 5.69309 4.56403L5.41484 4.28504C5.2673 4.13704 5.07113 4.05556 4.86242 4.05556C4.65375 4.05556 4.45758 4.13704 4.30996 4.28504L3.75758 4.83902C3.61 4.98702 3.52875 5.18374 3.52875 5.39304C3.52875 5.6023 3.61 5.79903 3.75758 5.94702L4.03578 6.22601C4.55789 6.74964 4.7107 7.53356 4.42508 8.22316L4.42039 8.2346C4.13637 8.92428 3.47566 9.36991 2.73723 9.36991H2.34375C1.91297 9.36991 1.5625 9.72137 1.5625 10.1534V10.9368C1.5625 11.3688 1.91297 11.7203 2.34375 11.7203H2.73723C3.47562 11.7203 4.13633 12.1659 4.42039 12.8556L4.42508 12.867C4.71074 13.5566 4.55789 14.3405 4.03578 14.8642L3.75754 15.1432C3.61 15.2911 3.52875 15.4879 3.52875 15.6971C3.52875 15.9064 3.61 16.1031 3.75754 16.2511L4.31 16.8052C4.45754 16.9531 4.65375 17.0346 4.86242 17.0346C5.07113 17.0346 5.26727 16.9531 5.41484 16.8052L5.69305 16.5262C6.21535 16.0025 6.99699 15.8494 7.68461 16.1358L7.69602 16.1405C8.38375 16.4253 8.82812 17.0879 8.82812 17.8284V18.223C8.82812 18.655 9.17859 19.0064 9.60938 19.0064H10.3906C10.7339 19.0064 11.0336 18.7861 11.1363 18.4583C11.2656 18.0454 11.7041 17.816 12.1157 17.9456C12.5273 18.0753 12.7562 18.515 12.627 18.9278C12.3186 19.9121 11.42 20.5733 10.3906 20.5733ZM19.3305 19.8628C19.7622 19.4299 20 18.8543 20 18.242C20 17.6298 19.7622 17.0542 19.3305 16.6213C19.3301 16.6209 19.3297 16.6205 19.3294 16.6201L14.2635 11.5612C14.4975 11.0503 14.6476 10.4591 14.6484 9.98351C14.6501 8.96964 14.2601 8.04175 13.5206 7.30017C12.6152 6.39219 11.2388 5.85078 9.83699 5.85078C9.8341 5.85078 9.83102 5.85078 9.82805 5.85078C9.37453 5.85156 8.9432 5.9265 8.47063 6.08664C8.21602 6.1729 8.02352 6.38435 7.96094 6.64642C7.89836 6.90852 7.97453 7.18446 8.16254 7.37703L10.0446 9.30422L9.80934 10.3209L8.81262 10.5476L6.90164 8.62707C6.71082 8.43532 6.43484 8.35596 6.17168 8.41734C5.90859 8.47865 5.69574 8.67197 5.60887 8.92847C5.4407 9.42495 5.35863 9.88456 5.35789 10.3336C5.35602 11.5008 5.72125 12.6685 6.35996 13.5375C7.13273 14.5889 8.23777 15.1675 9.4725 15.1675C9.47465 15.1675 9.47691 15.1675 9.47902 15.1675C9.90996 15.1667 10.5134 15.045 11.0516 14.8102L16.0981 19.8628C16.5298 20.2957 17.1038 20.5342 17.7143 20.5342C18.3248 20.5342 18.8989 20.2957 19.3305 19.8628ZM10.7354 13.205C10.4119 13.4375 9.81227 13.6 9.47645 13.6006C8.54344 13.601 7.95129 13.0615 7.61773 12.6078C7.27391 12.14 7.04398 11.5388 6.95805 10.9021L8.01145 11.9607C8.20117 12.1514 8.47547 12.2309 8.73727 12.1714L10.6324 11.7403C10.9245 11.6739 11.1529 11.4459 11.2207 11.1534L11.6636 9.24005C11.7239 8.97939 11.6474 8.70589 11.4607 8.51469L10.4323 7.4616C11.2073 7.57669 11.9216 7.91252 12.4157 8.40806C12.8614 8.85498 13.0869 9.38417 13.0859 9.98085C13.0854 10.2943 12.9024 10.8978 12.6582 11.2363C12.4328 11.5485 12.4674 11.9787 12.7398 12.2507L18.2259 17.7294C18.3623 17.8663 18.4375 18.0484 18.4375 18.242C18.4375 18.4357 18.3623 18.6178 18.2257 18.7547C18.0891 18.8917 17.9075 18.9672 17.7143 18.9672C17.5212 18.9672 17.3396 18.8917 17.2025 18.7543L11.7423 13.2876C11.5911 13.1362 11.3913 13.0585 11.1901 13.0585C11.0316 13.0585 10.8723 13.1068 10.7354 13.205Z" fill="black"/>
</svg>
